<?xml version="1.0" encoding="UTF-8"?>
<svg id="Layer_1" xmlns="http://www.w3.org/2000/svg" version="1.1" viewBox="0 0 304 184">
  <!-- Generator: Adobe Illustrator 30.4.0, SVG Export Plug-In . SVG Version: 2.1.4 Build 226)  -->
  <defs>
    <style>
      .st0 {
        fill: #392558;
      }
    </style>
  </defs>
  <path class="st0" d="M83.68,98.35c6.29,0,11.38,5.08,11.38,11.38s-5.09,11.38-11.38,11.38c-1.21,0-2.35-.19-3.43-.54v1.08h-7.95v-27.81h7.95v5.05c1.08-.35,2.23-.54,3.43-.54M80.25,109.73c0,1.91,1.53,3.43,3.43,3.43s3.43-1.52,3.43-3.43-1.53-3.43-3.43-3.43-3.43,1.52-3.43,3.43"/>
  <path class="st0" d="M119.1,109.73c0-6.29-5.08-11.38-11.38-11.38s-11.38,5.08-11.38,11.38v3.97c0,6.33,5.09,11.41,11.38,11.41h.8v-7.94h-.8c-1.88,0-3.47-1.43-3.47-3.47h14.85v-3.97ZM107.74,109.45c-1.9,0-3.45-1.54-3.45-3.44s1.54-3.44,3.45-3.44,3.45,1.54,3.45,3.44-1.54,3.44-3.45,3.44"/>
  <path class="st0" d="M135.18,93.84h7.95v27.81h-7.95v-1.08c-1.08.35-2.22.54-3.43.54-6.29,0-11.38-5.08-11.38-11.38s5.09-11.38,11.38-11.38c1.21,0,2.35.19,3.43.54v-5.05ZM128.32,109.73c0,1.91,1.53,3.43,3.43,3.43s3.43-1.52,3.43-3.43-1.53-3.43-3.43-3.43-3.43,1.52-3.43,3.43"/>
  <path class="st0" d="M160.07,93.84h7.95v27.81h-7.95v-1.08c-1.08.35-2.22.54-3.43.54-6.29,0-11.38-5.08-11.38-11.38s5.09-11.38,11.38-11.38c1.21,0,2.35.19,3.43.54v-5.05ZM153.21,109.73c0,1.91,1.53,3.43,3.43,3.43s3.43-1.52,3.43-3.43-1.53-3.43-3.43-3.43-3.43,1.52-3.43,3.43"/>
  <path class="st0" d="M192.91,109.73c0,6.29-5.09,11.38-11.38,11.38s-11.38-5.08-11.38-11.38,5.09-11.38,11.38-11.38,11.38,5.08,11.38,11.38M178.1,109.73c0,1.91,1.53,3.43,3.43,3.43s3.43-1.52,3.43-3.43-1.53-3.43-3.43-3.43-3.43,1.52-3.43,3.43"/>
  <path class="st0" d="M202.99,97.81v1.08c1.08-.35,2.23-.54,3.47-.54h.51v7.94h-.51c-1.94,0-3.47,1.59-3.47,3.43v9.28h-7.95v-21.2h7.95Z"/>
  <path class="st0" d="M223.75,97.81h7.95v23.84h-7.95v-1.08c-1.08.35-2.22.54-3.43.54-6.29,0-11.38-5.08-11.38-11.38s5.09-11.38,11.38-11.38c1.21,0,2.35.19,3.43.54v-1.08ZM216.88,109.73c0,1.91,1.53,3.43,3.43,3.43s3.43-1.52,3.43-3.43-1.53-3.43-3.43-3.43-3.43,1.52-3.43,3.43"/>
  <path class="st0" d="M118.28,94.74c-1.36.05-2.71-.16-4.05-.44-.2-.05-.39-.1-.59-.15.4-.21.8-.44,1.18-.7,1.79-1.21,3.22-2.88,4.13-4.85l1.2-2.58-2.52,1.32c-3.42,1.78-7.61.71-9.77-2.48-2.33-3.45-1.42-8.16,2.03-10.5.31-.21.64-.4.97-.56l2.55-1.22-2.76-.59c-3.18-.68-6.42-.05-9.14,1.77-2.63,1.78-4.41,4.48-5.01,7.59-.52,2.68-.11,5.4,1.16,7.79-1.33-.11-2.69-.04-4,.24-.72.16-1.43.4-2.09.73-.65.33-1.28.76-1.72,1.33.59-.41,1.24-.66,1.91-.83.67-.16,1.34-.27,2.02-.29,1.36-.07,2.73.07,4.06.34,2.68.53,5.29,1.49,7.82,2.62,2.62,1.14,5.4,2.14,8.32,2.5,1.46.16,2.96.18,4.41-.1l.54-.12c.18-.05.35-.12.53-.17.35-.1.7-.26,1.03-.42.64-.35,1.28-.78,1.67-1.39-1.14.87-2.54,1.11-3.89,1.15M106.44,91.52c-2.01-.89-4.12-1.63-6.31-2.04-.07-.1-.14-.19-.21-.29-3.07-4.54-1.88-10.74,2.67-13.82,1.53-1.03,3.28-1.61,5.07-1.7-3.37,3.13-4.06,8.36-1.41,12.28,2.16,3.19,5.93,4.69,9.55,4.04-.59.71-1.29,1.34-2.06,1.86-.93.64-1.96,1.09-3.04,1.38-1.43-.51-2.85-1.1-4.27-1.72"/>
  <polygon class="st0" points="117.88 77.9 117.57 78.45 117.02 78.75 117.57 79.06 117.88 79.61 118.18 79.06 118.73 78.75 118.18 78.45 117.88 77.9"/>
  <polygon class="st0" points="117.88 63.37 118.67 61.92 120.12 61.13 118.67 60.34 117.88 58.89 117.08 60.34 115.63 61.13 117.08 61.92 117.88 63.37"/>
  <polygon class="st0" points="126.12 71.27 125.7 72.03 124.94 72.45 125.7 72.86 126.12 73.62 126.54 72.86 127.3 72.45 126.54 72.03 126.12 71.27"/>
  <polygon class="st0" points="90.45 66.57 91.58 65.96 90.45 65.34 89.84 64.22 89.22 65.34 88.1 65.96 89.22 66.57 89.84 67.7 90.45 66.57"/>
  <polygon class="st0" points="85 75.96 84.73 76.45 84.24 76.72 84.73 76.99 85 77.48 85.27 76.99 85.76 76.72 85.27 76.45 85 75.96"/>
  <polygon class="st0" points="130.46 83.58 130.04 82.8 129.61 83.58 128.84 84 129.61 84.42 130.04 85.2 130.46 84.42 131.24 84 130.46 83.58"/>
</svg>